<svg width="23" height="23" viewBox="0 0 23 23" fill="none" xmlns="http://www.w3.org/2000/svg">
<path d="M11.5 21.0833C6.20715 21.0833 1.91669 16.7929 1.91669 11.5C1.91669 6.20712 6.20715 1.91666 11.5 1.91666C16.7929 1.91666 21.0834 6.20712 21.0834 11.5C21.0834 16.7929 16.7929 21.0833 11.5 21.0833ZM10.5417 14.375V16.2917H12.4584V14.375H10.5417ZM12.4584 12.7985C13.2285 12.5664 13.8897 12.0654 14.3215 11.3867C14.7533 10.708 14.9269 9.89675 14.8108 9.10077C14.6947 8.30479 14.2965 7.57699 13.6889 7.04993C13.0812 6.52286 12.3044 6.23159 11.5 6.22916C10.7246 6.2291 9.97307 6.49764 9.37328 6.98911C8.77349 7.48058 8.36245 8.16464 8.21006 8.92495L10.0903 9.30157C10.1437 9.03461 10.2717 8.78829 10.4596 8.59127C10.6475 8.39425 10.8875 8.25464 11.1516 8.18867C11.4157 8.1227 11.6932 8.13309 11.9516 8.21863C12.2101 8.30417 12.4389 8.46134 12.6115 8.67186C12.7841 8.88238 12.8934 9.13759 12.9267 9.4078C12.9599 9.678 12.9157 9.95209 12.7993 10.1982C12.6829 10.4443 12.4989 10.6522 12.2689 10.7978C12.0389 10.9435 11.7723 11.0208 11.5 11.0208C11.2459 11.0208 11.0021 11.1218 10.8224 11.3015C10.6427 11.4812 10.5417 11.725 10.5417 11.9792V13.4167H12.4584V12.7985Z" fill="#C4C4C4"/>
</svg>
